<mxfile host="app.diagrams.net" modified="2023-11-14T15:00:31.298Z" agent="Mozilla/5.0 (Windows NT 10.0; Win64; x64) AppleWebKit/537.36 (KHTML, like Gecko) Chrome/119.0.0.0 Safari/537.36" etag="FueXfcFFmsoBLQE9kR6L" version="22.1.0" type="github">
  <diagram name="Page-1" id="B7dvrdiz3QRLkiSaSS6b">
    <mxGraphModel dx="1185" dy="422" grid="1" gridSize="1" guides="1" tooltips="1" connect="1" arrows="1" fold="1" page="1" pageScale="1" pageWidth="1100" pageHeight="850" math="0" shadow="0">
      <root>
        <mxCell id="0" />
        <mxCell id="1" parent="0" />
        <mxCell id="h9zx9sQTkyY40kXCvM0r-2" style="edgeStyle=orthogonalEdgeStyle;rounded=0;orthogonalLoop=1;jettySize=auto;html=1;exitX=0.5;exitY=1;exitDx=0;exitDy=0;entryX=0.5;entryY=1;entryDx=0;entryDy=0;curved=1;" edge="1" parent="1" source="U9dns1udBrLqBRFEPLwW-1" target="U9dns1udBrLqBRFEPLwW-3">
          <mxGeometry relative="1" as="geometry" />
        </mxCell>
        <mxCell id="h9zx9sQTkyY40kXCvM0r-6" style="edgeStyle=orthogonalEdgeStyle;rounded=0;orthogonalLoop=1;jettySize=auto;html=1;exitX=0.5;exitY=0;exitDx=0;exitDy=0;entryX=0.5;entryY=0;entryDx=0;entryDy=0;curved=1;" edge="1" parent="1" source="U9dns1udBrLqBRFEPLwW-1" target="U9dns1udBrLqBRFEPLwW-2">
          <mxGeometry relative="1" as="geometry" />
        </mxCell>
        <mxCell id="U9dns1udBrLqBRFEPLwW-1" value="IDLE&lt;hr&gt;out_cnt = 0" style="ellipse;whiteSpace=wrap;html=1;" parent="1" vertex="1">
          <mxGeometry x="252" y="347" width="120" height="80" as="geometry" />
        </mxCell>
        <mxCell id="h9zx9sQTkyY40kXCvM0r-4" style="edgeStyle=orthogonalEdgeStyle;rounded=0;orthogonalLoop=1;jettySize=auto;html=1;entryX=1;entryY=0.5;entryDx=0;entryDy=0;curved=1;" edge="1" parent="1" source="U9dns1udBrLqBRFEPLwW-2" target="U9dns1udBrLqBRFEPLwW-1">
          <mxGeometry relative="1" as="geometry" />
        </mxCell>
        <mxCell id="U9dns1udBrLqBRFEPLwW-2" value="trigger 1&lt;hr&gt;out_cnt = 1" style="ellipse;whiteSpace=wrap;html=1;" parent="1" vertex="1">
          <mxGeometry x="480" y="280" width="146" height="87" as="geometry" />
        </mxCell>
        <mxCell id="h9zx9sQTkyY40kXCvM0r-3" style="edgeStyle=orthogonalEdgeStyle;rounded=0;orthogonalLoop=1;jettySize=auto;html=1;exitX=0.5;exitY=0;exitDx=0;exitDy=0;entryX=1;entryY=0.5;entryDx=0;entryDy=0;curved=1;" edge="1" parent="1" source="U9dns1udBrLqBRFEPLwW-3" target="U9dns1udBrLqBRFEPLwW-1">
          <mxGeometry relative="1" as="geometry">
            <Array as="points">
              <mxPoint x="540" y="412" />
              <mxPoint x="426" y="412" />
              <mxPoint x="426" y="387" />
            </Array>
          </mxGeometry>
        </mxCell>
        <mxCell id="U9dns1udBrLqBRFEPLwW-3" value="trigger 2&lt;hr&gt;if(inline)out_cnt = 2&lt;br&gt;if(newline)out_cnt= 3" style="ellipse;whiteSpace=wrap;html=1;" parent="1" vertex="1">
          <mxGeometry x="480" y="405" width="166" height="93" as="geometry" />
        </mxCell>
      </root>
    </mxGraphModel>
  </diagram>
</mxfile>
